<?xml version="1.0" standalone="no"?>
<!DOCTYPE svg PUBLIC "-//W3C//DTD SVG 20010904//EN"
 "http://www.w3.org/TR/2001/REC-SVG-20010904/DTD/svg10.dtd">
<svg version="1.0" xmlns="http://www.w3.org/2000/svg"
 width="369.000000pt" height="369.000000pt" viewBox="0 0 369.000000 369.000000"
 preserveAspectRatio="xMidYMid meet">
<metadata>
Created by potrace 1.11, written by Peter Selinger 2001-2013
</metadata>
<g transform="translate(0.000000,369.000000) scale(0.100000,-0.100000)"
fill="#000000" stroke="none">
<path d="M2873 2595 c6 -41 4 -46 -21 -59 -15 -9 -21 -15 -13 -16 21 0 78 -67
108 -125 14 -27 28 -52 32 -55 3 -3 7 -9 8 -15 1 -5 7 -23 13 -40 79 -221 151
-467 151 -512 0 -55 -32 -141 -57 -156 -8 -5 -12 -12 -9 -18 4 -5 -1 -12 -9
-15 -9 -3 -13 -11 -9 -18 3 -6 3 -8 -2 -4 -4 4 -25 -2 -46 -12 -21 -11 -49
-20 -62 -20 -12 0 -27 -4 -33 -9 -5 -5 -34 -5 -64 -1 -30 4 -66 7 -80 5 -14
-1 -19 0 -13 2 18 6 -1 24 -49 46 -20 10 -40 22 -43 28 -5 6 -12 5 -23 -3 -13
-11 -15 -10 -9 5 7 19 -3 31 -67 82 -21 17 -47 38 -58 47 -12 10 -24 18 -27
18 -3 0 -22 13 -40 30 -19 16 -58 41 -85 56 -28 15 -72 44 -98 63 -26 20 -67
49 -92 64 -49 30 -60 63 -31 87 8 7 15 18 15 24 0 20 -52 64 -103 86 -45 20
-55 21 -115 10 -98 -17 -122 -33 -184 -125 -78 -116 -92 -122 -169 -82 -72 37
-89 51 -89 72 0 17 -2 17 -10 5 -23 -35 5 59 40 135 46 100 101 153 215 206
120 56 196 71 360 72 136 1 139 1 95 15 -63 20 -411 28 -535 13 -52 -7 -159
-28 -237 -47 -79 -18 -161 -34 -184 -34 -62 0 -181 34 -279 80 -49 22 -92 37
-96 33 -10 -10 -379 -773 -379 -783 0 -4 -7 -13 -15 -20 -13 -11 -15 -10 -10
6 4 14 3 13 -6 -3 -6 -12 -22 -24 -35 -27 -30 -8 -31 -23 -1 -29 19 -4 18 -4
-5 -6 -23 -1 -28 3 -29 22 0 21 -1 21 -9 2 -8 -19 -9 -18 -11 5 -1 21 -3 19
-9 -10 -5 -25 -8 -28 -9 -12 -1 30 -18 46 -64 61 -21 7 -37 19 -37 28 0 15
-20 14 -64 -3 -15 -6 -15 -3 -5 20 10 20 10 29 1 38 -9 9 -16 7 -28 -10 -8
-12 -23 -22 -32 -22 -15 0 -15 2 -2 10 8 5 10 10 4 10 -5 0 -16 -6 -23 -12 -9
-8 -11 -8 -8 -2 8 14 -17 26 -37 18 -8 -3 -17 -1 -21 5 -12 21 -26 11 -23 -16
3 -30 28 -55 50 -50 7 2 9 2 4 -1 -5 -2 55 -36 133 -73 78 -38 148 -66 154
-63 7 4 9 3 4 -1 -4 -5 7 -15 25 -22 18 -8 34 -10 36 -5 1 5 9 17 16 27 12 17
16 16 67 -17 66 -43 123 -89 214 -177 115 -111 212 -188 282 -226 1 0 -2 -18
-7 -40 -19 -83 28 -155 100 -155 40 0 65 13 112 58 44 42 57 37 34 -12 -20
-43 -20 -80 1 -116 40 -68 127 -66 192 4 28 30 41 33 41 11 0 -27 33 -67 66
-81 40 -17 87 -5 124 31 38 37 62 25 54 -26 -5 -32 -2 -45 20 -74 33 -42 71
-46 145 -14 l48 20 61 -20 c66 -23 142 -27 173 -11 22 12 49 60 49 89 0 11
-11 33 -25 49 -35 42 -31 46 23 18 26 -13 71 -31 101 -40 101 -30 154 -17 186
44 21 41 19 72 -10 113 -13 20 -20 39 -15 42 6 3 42 -5 80 -19 101 -37 143
-35 187 9 36 36 37 39 21 130 -2 15 2 19 17 17 88 -13 104 -13 124 -2 28 14
54 75 47 105 -5 18 15 42 107 132 61 60 147 135 190 167 l79 58 32 -31 32 -31
145 70 c163 80 168 86 155 192 -7 53 -8 55 -37 53 -25 -2 -33 5 -60 49 -20 33
-29 42 -25 26 3 -14 10 -49 17 -78 12 -59 11 -62 -22 -66 -22 -3 -138 -54
-149 -66 -3 -3 -15 -7 -27 -7 -19 -2 -40 33 -162 275 -183 365 -315 591 -345
592 -5 0 -6 -20 -3 -45z m-2753 -847 c0 -4 -4 -8 -9 -8 -6 0 -12 4 -15 8 -3 5
1 9 9 9 8 0 15 -4 15 -9z m107 -20 c-3 -8 -6 -5 -6 6 -1 11 2 17 5 13 3 -3 4
-12 1 -19z m-107 -8 c0 -5 -4 -10 -9 -10 -6 0 -13 5 -16 10 -3 6 1 10 9 10 9
0 16 -4 16 -10z m60 -14 c0 -2 -7 -7 -16 -10 -8 -3 -12 -2 -9 4 6 10 25 14 25
6z m35 -26 c-3 -5 -12 -10 -18 -10 -7 0 -6 4 3 10 19 12 23 12 15 0z m2489
-117 c17 -14 27 -24 21 -22 -40 18 -65 33 -65 41 0 14 11 9 44 -19z m-1086
-623 c35 -21 40 -51 11 -55 -9 -2 -26 -6 -38 -10 -13 -4 -21 -2 -21 5 0 6 -4
9 -9 6 -4 -3 -21 6 -37 20 -28 24 -28 25 -10 39 27 21 65 19 104 -5z"/>
</g>
</svg>
